<svg xmlns="http://www.w3.org/2000/svg" version="1.1" xmlns:xlink="http://www.w3.org/1999/xlink" xmlns:svgjs="http://svgjs.dev/svgjs" width="2000" height="2024" viewBox="0 0 2000 2024"><g transform="matrix(1,0,0,1,1.767868852458946,0.8194331983804659)"><svg viewBox="0 0 244 247" data-background-color="#ffffff" preserveAspectRatio="xMidYMid meet" height="2024" width="2000" xmlns="http://www.w3.org/2000/svg" xmlns:xlink="http://www.w3.org/1999/xlink"><g id="tight-bounds" transform="matrix(1,0,0,1,-0.21567999999999188,-0.09999999999999432)"><svg viewBox="0 0 244.43135999999998 247.2" height="247.2" width="244.43135999999998"><g><svg></svg></g><g><svg viewBox="0 0 244.43135999999998 247.2" height="247.2" width="244.43135999999998"><g transform="matrix(1,0,0,1,0,76.76154866310159)"><svg viewBox="0 0 244.43135999999998 93.67690267379679" height="93.67690267379679" width="244.43135999999998"><g><svg viewBox="0 0 244.43135999999998 93.67690267379679" height="93.67690267379679" width="244.43135999999998"><g><svg viewBox="0 0 244.43135999999998 93.67690267379679" height="93.67690267379679" width="244.43135999999998"><g id="textblocktransform"><svg viewBox="0 0 244.43135999999998 93.67690267379679" height="93.67690267379679" width="244.43135999999998" id="textblock"><g><svg viewBox="0 0 244.43135999999998 93.67690267379679" height="93.67690267379679" width="244.43135999999998"><g transform="matrix(1,0,0,1,0,0)"><svg width="244.43135999999998" viewBox="3.32 -36.25 95.87 36.74" height="93.67690267379679" data-palette-color="#6fdab6"><path d="M32.32-6.59L32.32-3.39Q31.03-2.27 29.46-1.53 27.88-0.78 26.26-0.33 24.63 0.12 23.06 0.31 21.48 0.49 20.21 0.49L20.21 0.49Q16.63 0.49 13.54-0.76 10.45-2 8.18-4.28 5.91-6.57 4.61-9.8 3.32-13.04 3.32-16.99L3.32-16.99Q3.32-20.02 4.08-22.62 4.83-25.22 6.18-27.36 7.52-29.49 9.38-31.15 11.23-32.81 13.43-33.95 15.63-35.08 18.09-35.67 20.56-36.25 23.14-36.25L23.14-36.25Q23.97-36.25 25.02-36.18 26.07-36.11 27.27-35.95 28.47-35.79 29.75-35.53 31.03-35.28 32.35-34.89L32.35-34.89 31.37-30.15 30.88-29.91Q28.34-31.08 26.14-31.52 23.93-31.96 22.31-31.96L22.31-31.96Q19.53-31.96 17.19-30.9 14.84-29.83 13.16-27.98 11.47-26.12 10.53-23.6 9.59-21.07 9.59-18.16L9.59-18.16Q9.59-15.31 10.47-12.74 11.35-10.18 13.05-8.24 14.75-6.3 17.21-5.15 19.68-4 22.88-4L22.88-4Q24.9-4 27.32-4.57 29.74-5.13 32.32-6.59L32.32-6.59ZM46.26-35.77L46.26 0 40.21 0 40.21-35.77 46.26-35.77ZM70.51 0L62.94 0 48.51-18.07 62.84-35.77 69.14-35.77 54.42-19.12 70.51 0ZM86.49-3.81L86.49-3.81Q87.96-3.81 89.22-4.19 90.47-4.57 91.4-5.26 92.33-5.96 92.85-6.97 93.38-7.98 93.38-9.25L93.38-9.25Q93.38-10.77 92.66-11.82 91.94-12.87 90.74-13.66 89.55-14.45 88.03-15.09 86.52-15.72 84.94-16.38 83.37-17.04 81.86-17.83 80.34-18.63 79.15-19.74 77.95-20.85 77.23-22.39 76.51-23.93 76.51-26.1L76.51-26.1Q76.51-28.47 77.41-30.35 78.32-32.23 79.95-33.54 81.59-34.86 83.86-35.56 86.13-36.25 88.86-36.25L88.86-36.25Q89.67-36.25 90.72-36.18 91.77-36.11 92.96-35.95 94.16-35.79 95.47-35.53 96.77-35.28 98.09-34.89L98.09-34.89 97.14-30.15 96.67-29.91Q95.38-30.49 94.16-30.88 92.94-31.27 91.84-31.52 90.74-31.76 89.8-31.86 88.86-31.96 88.15-31.96L88.15-31.96Q86.81-31.96 85.71-31.64 84.61-31.32 83.85-30.71 83.08-30.1 82.65-29.21 82.22-28.32 82.22-27.17L82.22-27.17Q82.22-25.63 82.95-24.55 83.69-23.46 84.87-22.63 86.05-21.8 87.58-21.15 89.11-20.51 90.71-19.84 92.3-19.17 93.83-18.38 95.36-17.6 96.54-16.53 97.72-15.45 98.46-14 99.19-12.55 99.19-10.52L99.19-10.52Q99.19-8.25 98.24-6.25 97.29-4.25 95.54-2.75 93.79-1.25 91.35-0.38 88.91 0.49 85.91 0.49L85.91 0.49Q84.69 0.49 83.34 0.33 82 0.17 80.61-0.12 79.22-0.42 77.85-0.85 76.48-1.29 75.21-1.86L75.21-1.86 76.19-6.64 76.68-6.88Q79.27-5.47 81.73-4.64 84.2-3.81 86.49-3.81Z" opacity="1" transform="matrix(1,0,0,1,0,0)" fill="#6fdab6" class="wordmark-text-0" data-fill-palette-color="primary" id="text-0"></path></svg></g></svg></g></svg></g></svg></g><g></g></svg></g></svg></g><path d="M0 70.762L0 1 244.431 1 244.431 70.762 235.983 70.762 235.983 9.448 8.448 9.448 8.448 70.762 0 70.762M0 176.438L0 246.2 244.431 246.2 244.431 176.438 235.983 176.438 235.983 237.752 8.448 237.752 8.448 176.438 0 176.438" fill="#d1d1d1" stroke="transparent" data-fill-palette-color="tertiary"></path></svg></g><defs></defs></svg><rect width="244.43135999999998" height="247.2" fill="none" stroke="none" visibility="hidden"></rect></g></svg></g></svg>